<?xml version="1.0" encoding="UTF-8" standalone="no"?>
<!-- Created with Inkscape (http://www.inkscape.org/) -->

<svg
   width="317.5mm"
   height="105.83334mm"
   viewBox="0 0 317.50001 105.83334"
   version="1.1"
   id="svg1"
   sodipodi:docname="rect1.svg"
   inkscape:version="1.3.2 (091e20e, 2023-11-25, custom)"
   xml:space="preserve"
   inkscape:export-filename="rect1.png"
   inkscape:export-xdpi="96"
   inkscape:export-ydpi="96"
   xmlns:inkscape="http://www.inkscape.org/namespaces/inkscape"
   xmlns:sodipodi="http://sodipodi.sourceforge.net/DTD/sodipodi-0.dtd"
   xmlns="http://www.w3.org/2000/svg"
   xmlns:svg="http://www.w3.org/2000/svg"><sodipodi:namedview
     id="namedview1"
     pagecolor="#505050"
     bordercolor="#eeeeee"
     borderopacity="1"
     inkscape:showpageshadow="0"
     inkscape:pageopacity="0"
     inkscape:pagecheckerboard="0"
     inkscape:deskcolor="#505050"
     inkscape:document-units="mm"
     inkscape:zoom="0.59078072"
     inkscape:cx="-11279.143"
     inkscape:cy="-24250.961"
     inkscape:window-width="1276"
     inkscape:window-height="1536"
     inkscape:window-x="-10"
     inkscape:window-y="0"
     inkscape:window-maximized="0"
     inkscape:current-layer="layer1" /><defs
     id="defs1" /><g
     inkscape:label="Layer 1"
     inkscape:groupmode="layer"
     id="layer1"
     transform="translate(4961.0726,7119.662)"><rect
       style="opacity:1;fill:#ffffff;stroke:none;stroke-width:0.264583"
       id="rect5"
       width="317.5"
       height="105.83334"
       x="-4961.0728"
       y="-7119.6616"
       inkscape:export-filename="Images\mission.png"
       inkscape:export-xdpi="300"
       inkscape:export-ydpi="300" /><path
       style="fill:#6f71f7;fill-opacity:1;stroke-width:0.554327"
       d="m -4743.7925,-7026.5937 -2.3833,2.0761 -1.1253,0.8305 -1.1253,0.8306 -1.3068,0.8465 -1.3068,0.8465 -1.301,0.7423 -1.301,0.7423 -1.495,0.7442 -1.4949,0.7441 -1.5,0.6275 -1.5001,0.6276 -1.6545,0.5633 -1.6545,0.5633 -2.0772,0.5276 -2.0771,0.5277 -1.4478,0.2433 -1.4478,0.2434 -1.1591,0.1273 -1.1589,0.1273 -1.7126,0.092 -1.7125,0.092 -2.3586,-0.1009 -2.3585,-0.1009 -2.1071,-0.3148 -2.107,-0.3148 -1.7657,-0.3981 -1.7657,-0.398 -1.8956,-0.6133 -1.8957,-0.6132 -1.396,-0.5993 -1.3961,-0.5992 -3.3555,-1.793 -3.3555,-1.7929 -1.7365,-0.8441 -1.7366,-0.844 -1.9445,-0.827 -1.9446,-0.827 -1.7163,-0.5394 -1.7163,-0.5395 -1.3354,-0.2887 -1.3354,-0.2886 -2.2155,-0.169 -2.2155,-0.1688 -1.6445,0.1313 -1.6445,0.1312 -0.769,0.126 -0.769,0.126 -1.2974,0.3029 -1.2976,0.303 0.1347,-0.1188 0.1346,-0.1188 1.1161,-0.4009 1.116,-0.4008 1.6273,-0.4305 1.6273,-0.4305 1.2058,-0.1851 1.2057,-0.1851 1.3116,-0.065 1.3116,-0.065 1.3913,0.053 1.3915,0.054 1.8709,0.3052 1.8709,0.3051 1.384,0.3438 1.3839,0.3436 1.7875,0.5745 1.7874,0.5743 2.0286,0.7529 2.0286,0.7529 3.1902,1.2927 3.1902,1.2927 2.3621,0.8498 2.362,0.8499 1.6833,0.4509 1.6833,0.4511 1.5915,0.278 1.5916,0.2781 2.3339,0.1594 2.334,0.1594 1.4311,-0.04 1.4311,-0.041 1.3708,-0.1224 1.371,-0.1224 1.7966,-0.3071 1.7965,-0.3071 2.0401,-0.5404 2.0402,-0.5404 1.7039,-0.6181 1.7039,-0.6182 1.5667,-0.6948 1.5665,-0.6949 1.7639,-0.9616 1.7639,-0.9616 1.8141,-1.1583 1.814,-1.1585 3.5192,-3.105 3.5194,-3.1051 1.375,-1.656 1.375,-1.6559 1.2125,-1.7294 1.2124,-1.7295 0.5623,-1.0252 0.5625,-1.0252 0.4926,-1.215 0.4927,-1.2151 0.2532,-1.0773 0.2531,-1.0773 0.01,-1.1341 0.01,-1.1341 -0.257,-0.9485 -0.257,-0.9485 -0.4424,-0.6395 -0.4422,-0.6395 -0.8295,-0.5476 -0.8294,-0.5475 -1.0144,-0.2171 -1.0143,-0.2171 -0.954,0.1191 -0.954,0.1191 -1.3954,0.6095 -1.3954,0.6094 -0.7406,-0.01 -0.7405,-0.01 -0.7255,-0.343 -0.7255,-0.343 -0.9127,-0.8015 -0.9129,-0.8015 -0.6495,-0.4798 -0.6494,-0.4798 -1.0941,0.4437 -1.0942,0.4437 -0.7684,0.069 -0.7686,0.068 -0.7069,-0.1535 -0.7069,-0.1535 -0.5337,-0.2976 -0.5338,-0.2976 -0.989,-0.8742 -0.9889,-0.8743 -0.6302,-0.586 -0.6303,-0.586 -0.7745,-0.088 -0.7744,-0.088 -1.1155,0.3143 -1.1157,0.3143 -1.7066,0.833 -1.7065,0.833 -2.6584,1.4206 -2.6583,1.4207 -1.3254,0.5253 -1.3254,0.5252 -1.1587,0.3198 -1.1586,0.3197 -1.0629,0.061 -1.0628,0.061 -1.2521,-0.1997 -1.252,-0.1996 -1.1703,-0.4518 -1.1703,-0.4517 -0.7729,-0.3939 -0.7728,-0.3938 -1.3879,-0.927 -1.3878,-0.927 -2.0243,-1.6368 -2.0243,-1.6369 -6.3204,-5.3766 -6.3205,-5.3765 -2.3337,-1.8799 -2.3339,-1.8797 -1.7805,-1.3359 -1.7805,-1.3358 -1.7188,-1.181 -1.7187,-1.1811 -1.5914,-0.9336 -1.5914,-0.9337 -1.5616,-0.7513 -1.5616,-0.7513 -1.7377,-0.5936 -1.7377,-0.5934 -1.6672,-0.4058 -1.6671,-0.4059 -4.2702,-0.8097 -4.2702,-0.8097 -1.722,-0.404 -1.7219,-0.404 -1.8862,-0.5886 -1.8861,-0.5885 -1.264,-0.5597 -1.264,-0.5598 -1.147,-0.6393 -1.1471,-0.6395 -1.2062,-0.8245 -1.2062,-0.8244 -1.0999,-0.8849 -1.1001,-0.8849 -2.1566,-2.3251 -2.1568,-2.3252 -1.02,-1.4242 -1.0201,-1.4244 -0.8989,-1.4562 -0.8989,-1.4562 -0.848,-1.5989 -0.8479,-1.5989 -0.8816,-2.0267 -0.8815,-2.0267 -0.7198,-2.0371 -0.7197,-2.0371 -0.7082,-2.6812 -0.7083,-2.6813 -0.03,-0.3831 -0.03,-0.3832 0.1129,0.2917 0.1128,0.2916 0.749,1.9175 0.7491,1.9176 0.7586,1.642 0.7587,1.6419 0.9337,1.7189 0.9337,1.7189 0.7425,1.2031 0.7424,1.203 0.9991,1.4412 0.9991,1.4411 1.5411,1.892 1.5411,1.8921 1.5325,1.4838 1.5325,1.484 1.3353,1.0568 1.3353,1.057 1.746,1.1142 1.746,1.1143 1.6189,0.8526 1.6189,0.8526 1.2362,0.4949 1.2361,0.4949 1.1184,0.3299 1.1183,0.33 1.4754,0.3607 1.4755,0.3608 3.919,0.7473 3.9192,0.7474 1.083,0.218 1.0831,0.218 1.9448,0.5333 1.9448,0.5335 1.4758,0.556 1.4757,0.5561 1.5586,0.7763 1.5586,0.7764 1.4096,0.81 1.4095,0.81 1.6446,1.0917 1.6445,1.0917 2.0282,1.5018 2.0282,1.5016 2.6917,2.177 2.6916,2.1769 6.3066,5.3695 6.3066,5.3695 1.7283,1.3896 1.7283,1.3896 1.3881,0.9462 1.388,0.9462 0.7831,0.4133 0.7832,0.4133 0.9864,0.2748 0.9863,0.2748 0.9115,0.017 0.9114,0.017 1.1193,-0.2935 1.1193,-0.2935 1.0569,-0.4456 1.0569,-0.4458 3.1682,-1.7004 3.1682,-1.7004 1.7295,-0.741 1.7295,-0.741 1.3026,-0.2561 1.3026,-0.2562 1.1758,0.085 1.1757,0.085 0.8233,0.3412 0.8233,0.3411 1.0245,0.9329 1.0246,0.933 0.808,0.6561 0.8083,0.6561 0.8444,-0.373 0.8445,-0.3729 0.4329,-0.1728 0.4329,-0.1728 0.7706,0.01 0.7706,0.01 0.6054,0.1772 0.6053,0.1772 0.6868,0.4441 0.6869,0.4441 1.0393,0.934 1.0393,0.9338 h 0.043 0.043 l 1.2231,-0.4786 1.223,-0.4786 1.09,-0.1597 1.0899,-0.1597 1.4693,0.1298 1.4691,0.1298 1.0296,0.3618 1.0296,0.3618 1.0444,0.7148 1.0445,0.7149 0.8233,1.0534 0.8232,1.0534 0.4258,1.0409 0.4257,1.041 0.1712,0.9302 0.1712,0.9302 0.034,1.2579 0.034,1.2578 -0.3216,1.6303 -0.3215,1.6302 -0.7564,1.8271 -0.7565,1.8273 -1.0462,1.7825 -1.0463,1.7825 -0.8621,1.1684 -0.8621,1.1685 -0.9391,1.1129 -0.9391,1.1129 -1.3766,1.4215 -1.3765,1.4214 z m -12.794,-9.0584 -1.4448,1.2444 -0.4205,0.2992 -0.4205,0.2993 -1.3004,0.8538 -1.3005,0.8537 -1.3354,0.688 -1.3354,0.688 -1.2332,0.5019 -1.2332,0.5019 -1.7305,0.4771 -1.7306,0.4772 -1.5653,0.2209 -1.5654,0.221 -1.413,0.061 -1.4129,0.061 -2.2136,-0.1707 -2.2136,-0.1707 -1.7285,-0.3331 -1.7285,-0.3331 -1.7074,-0.4495 -1.7073,-0.4495 -1.9375,-0.6377 -1.9374,-0.6377 -2.4866,-0.9355 -2.4868,-0.9354 -2.7195,-1.0234 -2.7194,-1.0235 -1.6293,-0.5184 -1.6292,-0.5184 -1.6374,-0.4135 -1.6372,-0.4136 -1.5157,-0.2274 -1.5157,-0.2275 -1.7204,-0.091 -1.7204,-0.091 -1.3127,0.064 -1.3127,0.064 -1.6582,0.2264 -1.6584,0.2265 -1.6519,0.3446 -1.6519,0.3445 -0.6149,-0.032 -0.615,-0.032 -0.5739,-0.6505 -0.574,-0.6505 0.025,-0.6175 0.025,-0.6175 0.2669,-0.4566 0.267,-0.4565 0.3712,-0.2153 0.3711,-0.2152 1.5273,-0.3289 1.5273,-0.3287 1.725,-0.26 1.725,-0.2599 1.8372,-0.1301 1.8372,-0.13 2.2866,0.1339 2.2867,0.134 1.3863,0.2438 1.3864,0.2438 1.2288,0.2848 1.2289,0.2849 1.7362,0.5218 1.7362,0.5219 1.431,0.4977 1.4311,0.4978 3.3249,1.2716 3.3249,1.2716 2.1345,0.7572 2.1346,0.7571 2.0713,0.5961 2.0712,0.5961 1.8258,0.3663 1.8257,0.3665 2.4881,0.1519 2.488,0.1519 1.5997,-0.1744 1.5997,-0.1745 1.3046,-0.2986 1.3047,-0.2987 1.3425,-0.4736 1.3424,-0.4736 1.5236,-0.7728 1.5236,-0.7726 1.4142,-0.9523 1.4142,-0.9522 1.1216,-0.9897 1.1217,-0.9896 0.5022,-0.2439 0.5022,-0.2439 0.6797,0.087 0.6796,0.087 0.4381,0.4966 0.438,0.4965 0.1203,0.4796 0.1203,0.4796 -0.1627,0.5253 -0.1626,0.5254 z m -79.4574,16.4808 -0.5603,0.5653 -1.62,0.4914 -1.6202,0.4916 -1.5418,0.3174 -1.5418,0.3174 -1.4852,0.1312 -1.4851,0.1313 -1.099,-0.026 -1.099,-0.026 -1.5856,-0.1691 -1.5857,-0.1692 -1.876,-0.4965 -1.876,-0.4966 -1.4159,-0.6086 -1.4158,-0.6087 -1.1446,-0.6182 -1.1446,-0.6182 -1.2109,-0.8242 -1.211,-0.8241 -0.985,-0.7934 -0.985,-0.7934 -1.3928,-1.3139 -1.3928,-1.3139 -1.4819,-1.8214 -1.4818,-1.8214 -1.1351,-1.7374 -1.1352,-1.7373 -0.1851,-0.6562 -0.1851,-0.6561 0.2818,-0.6722 0.2818,-0.6721 0.4471,-0.2665 0.4472,-0.2665 h 0.6742 0.6742 l 0.4126,0.2693 0.4124,0.2694 0.8387,1.3618 0.8387,1.3619 1.3159,1.7093 1.3158,1.7094 1.6164,1.6072 1.6163,1.6072 1.4366,1.0913 1.4366,1.0912 1.2529,0.7376 1.253,0.7375 1.3589,0.5832 1.3587,0.5833 1.4264,0.3857 1.4264,0.3857 1.4399,0.1965 1.4399,0.1965 1.0647,-0.015 1.0648,-0.016 1.3882,-0.1401 1.3883,-0.1401 1.3212,-0.3019 1.3213,-0.3017 1.2827,-0.4303 1.2829,-0.4304 0.581,0.061 0.5811,0.061 0.4163,0.3247 0.4162,0.3246 0.1774,0.3433 0.1774,0.3433 -0.013,0.717 -0.014,0.7171 z m 1.6885,-14.7313 -0.4985,0.4324 -1.1351,0.2716 -1.1351,0.2716 -1.487,0.1926 -1.487,0.1927 -1.6669,-0.013 -1.667,-0.013 -1.1907,-0.1583 -1.1907,-0.1583 -1.3598,-0.365 -1.3598,-0.3649 -1.1154,-0.4515 -1.1155,-0.4515 -1.3554,-0.7913 -1.3554,-0.7914 -1.0887,-0.8831 -1.0887,-0.8832 -1.3343,-1.5124 -1.3344,-1.5123 -0.641,-0.9644 -0.6409,-0.9645 -0.097,-0.4811 -0.096,-0.4811 0.1065,-0.5056 0.1066,-0.5056 0.5308,-0.4551 0.5309,-0.4551 0.5451,-0.057 0.5451,-0.057 0.5728,0.289 0.5728,0.289 0.5295,0.8436 0.5295,0.8435 1.2205,1.3834 1.2205,1.3833 1.0345,0.8073 1.0346,0.8072 1.0969,0.5963 1.0969,0.5962 1.0429,0.3768 1.043,0.3769 1.192,0.2558 1.1922,0.2558 1.757,0.062 1.7571,0.062 1.5646,-0.2219 1.5646,-0.2218 0.9203,-0.2391 0.9203,-0.2391 0.5281,0.1635 0.5282,0.1636 0.3686,0.4179 0.3687,0.4178 0.1203,0.4796 0.1203,0.4796 -0.1627,0.5254 -0.1626,0.5253 z m 3.059,-15.9968 -0.4729,0.4172 -0.8201,0.1791 -0.8199,0.179 -0.7696,0.1254 -0.7695,0.1253 -1.9781,-0.1359 -1.978,-0.1359 -1.2466,-0.434 -1.2465,-0.434 -1.3112,-0.7472 -1.311,-0.7471 -1.1275,-0.9463 -1.1274,-0.9462 -0.4852,-0.5499 -0.4851,-0.5499 -0.1454,-0.5524 -0.1454,-0.5524 0.1535,-0.5794 0.1533,-0.5793 0.3796,-0.3349 0.3795,-0.3348 0.5282,-0.1519 0.5282,-0.1517 0.5139,0.1614 0.5139,0.1614 0.994,0.9699 0.9939,0.9699 0.895,0.609 0.8951,0.6089 0.9441,0.4201 0.9442,0.4201 1.103,0.2231 1.1029,0.223 0.9729,-0.065 0.9728,-0.065 0.9839,-0.211 0.9839,-0.2111 0.5759,0.15 0.5759,0.15 0.3866,0.4382 0.3866,0.4382 0.099,0.5765 0.099,0.5765 -0.1706,0.4392 -0.1707,0.4392 z m -42.2978,4.6444 -0.05,0.5183 -0.1384,-0.1568 -0.1384,-0.1569 -0.6858,-1.4483 -0.6858,-1.4482 -1.2175,-2.3644 -1.2175,-2.3644 -0.8813,-1.5538 -0.8814,-1.5537 -0.9963,-1.5658 -0.9963,-1.5658 -1.0689,-1.5019 -1.0688,-1.5018 -3.016,-3.4024 -3.016,-3.4023 -1.7394,-1.5948 -1.7393,-1.5948 -0.3985,-0.333 -0.3985,-0.333 0.6214,0.076 0.6214,0.076 1.2671,0.4088 1.2672,0.4089 1.2246,0.601 1.2246,0.6009 1.1488,0.7279 1.1488,0.7278 1.3453,1.0623 1.3454,1.0623 1.9448,2.1959 1.9448,2.1959 0.7833,1.2648 0.7833,1.2649 0.7716,1.544 0.7716,1.544 0.4907,1.3518 0.4908,1.3518 0.3337,1.2582 0.3335,1.2582 0.2325,1.3718 0.2325,1.3719 0.028,1.5397 0.028,1.5398 z"
       id="path33-7-3" /><path
       style="opacity:0.5;fill:#ffffff;fill-opacity:1;stroke-width:0.554327"
       d="m -4812.6564,-7025.3055 -1.4477,1.2411 -0.6906,0.5474 -0.6907,0.5472 -1.636,1.1384 -1.6361,1.1384 -1.9848,1.1644 -1.9848,1.1644 -1.6,0.7579 -1.6001,0.758 -1.2218,0.4997 -1.2216,0.4996 -1.7207,0.5991 -1.7208,0.5991 -2.1693,0.534 -2.1694,0.534 -2.4454,0.3437 -2.4455,0.3438 -1.6894,0.069 -1.6895,0.068 -1.5124,-0.011 -1.5124,-0.011 -2.2439,-0.2693 -2.2439,-0.2692 -1.4034,-0.2691 -1.4034,-0.2691 -2.2929,-0.6175 -2.293,-0.6174 -2.1126,-0.8743 -2.1127,-0.8742 -3.3255,-1.7782 -3.3255,-1.7782 -1.7724,-0.863 -1.7724,-0.863 -2.1129,-0.8741 -2.1128,-0.8741 -1.4303,-0.4474 -1.4303,-0.4474 -1.457,-0.3213 -1.4571,-0.3213 -2.2865,-0.153 -2.2865,-0.153 -1.4569,0.1219 -1.4569,0.1219 -1.7721,0.3195 -1.772,0.3195 0.3476,-0.1602 0.3475,-0.1603 1.2972,-0.414 1.2972,-0.4141 1.6589,-0.3367 1.6588,-0.3367 1.6475,-0.1278 1.6476,-0.1279 1.897,0.1145 1.8971,0.1146 1.2485,0.2077 1.2485,0.2077 1.4751,0.3611 1.4751,0.361 1.7905,0.5717 1.7906,0.5718 1.7292,0.6257 1.7293,0.6258 3.5308,1.4284 3.5308,1.4282 2.3222,0.84 2.3222,0.84 1.8717,0.5003 1.8716,0.5001 1.2008,0.2119 1.2008,0.2119 1.7514,0.1886 1.7514,0.1887 1.8513,0.01 1.8514,0.01 1.725,-0.1356 1.7251,-0.1356 1.7466,-0.2845 1.7465,-0.2846 2.0071,-0.5137 2.0071,-0.5136 1.6324,-0.571 1.6323,-0.571 1.8378,-0.7988 1.8378,-0.799 1.6728,-0.9074 1.6728,-0.9074 1.6063,-1.029 1.6064,-1.029 2.1153,-1.6307 2.1154,-1.6309 1.954,-1.9592 1.954,-1.9592 1.2348,-1.4824 1.2347,-1.4825 1.2038,-1.7392 1.2037,-1.7392 0.5554,-1.0699 0.5554,-1.0697 0.3867,-0.966 0.3868,-0.966 0.246,-0.9564 0.2462,-0.9564 0.073,-0.9526 0.073,-0.9525 -0.1586,-1.0553 -0.1586,-1.0553 -0.3839,-0.6981 -0.3839,-0.6981 -0.6216,-0.602 -0.6216,-0.602 -0.7456,-0.3201 -0.7456,-0.3201 -1.2518,-0.078 -1.2517,-0.078 -0.8532,0.2522 -0.8533,0.2523 -0.69,0.368 -0.6901,0.3679 -0.764,0.1216 -0.7642,0.1216 -0.9549,-0.3975 -0.9549,-0.3975 -1.3276,-1.1805 -1.3277,-1.1805 -0.2167,-0.1132 -0.2167,-0.1132 -0.8013,0.3571 -0.8013,0.3572 -0.6041,0.1567 -0.604,0.1566 -0.7756,-0.01 -0.7756,-0.01 -0.7676,-0.3323 -0.7675,-0.3323 -1.0912,-0.8809 -1.0913,-0.881 -0.5408,-0.6129 -0.5409,-0.613 -0.5278,-0.1635 -0.5278,-0.1634 -0.9235,0.1272 -0.9235,0.1271 -1.2265,0.4799 -1.2265,0.48 -3.7513,1.9674 -3.7511,1.9675 -1.2992,0.5228 -1.299,0.5227 -1.1212,0.3231 -1.1211,0.323 -1.2771,0.062 -1.277,0.062 -1.0126,-0.1916 -1.0125,-0.1915 -1.3066,-0.4902 -1.3065,-0.4902 -1.1896,-0.6803 -1.1897,-0.6803 -0.9826,-0.6979 -0.9826,-0.6977 -1.6872,-1.3474 -1.6874,-1.3474 -7.058,-5.997 -7.0581,-5.9971 -2.2784,-1.8038 -2.2784,-1.8038 -1.4467,-1.0706 -1.4468,-1.0706 -1.2414,-0.8607 -1.2414,-0.8606 -1.7066,-1.037 -1.7066,-1.0369 -1.5608,-0.7744 -1.5609,-0.7743 -1.2012,-0.4636 -1.2013,-0.4635 -2.2373,-0.6101 -2.2373,-0.6099 -3.3855,-0.6314 -3.3855,-0.6316 -1.801,-0.3667 -1.8011,-0.3669 -1.7904,-0.4741 -1.7904,-0.474 -1.1811,-0.3954 -1.1809,-0.3956 -1.1284,-0.5008 -1.1283,-0.5008 -1.2338,-0.6718 -1.2337,-0.6717 -1.3002,-0.9066 -1.3001,-0.9065 -1.311,-1.0927 -1.3109,-1.0927 -2.1791,-2.4782 -2.1791,-2.4782 -0.8328,-1.2211 -0.8328,-1.2212 -0.8443,-1.4065 -0.8444,-1.4066 -0.8361,-1.6093 -0.8362,-1.6094 -0.8944,-2.1088 -0.8944,-2.1089 -0.583,-1.673 -0.583,-1.673 -0.7293,-2.7307 -0.7294,-2.7306 0.063,0.01 0.063,0.01 0.5289,1.381 0.5289,1.3811 0.8793,1.9626 0.8791,1.9625 0.9297,1.7225 0.9296,1.7225 0.692,1.1498 0.692,1.1497 0.9067,1.3515 0.9068,1.3514 2.128,2.5447 2.1279,2.5448 1.3576,1.2753 1.3577,1.2752 0.8933,0.6916 0.8934,0.6918 1.0212,0.6989 1.0212,0.6989 1.1056,0.6871 1.1057,0.6871 1.4274,0.7542 1.4274,0.7543 1.4777,0.5944 1.4776,0.5944 2.1381,0.5585 2.1381,0.5584 2.9139,0.5585 2.914,0.5584 2.5337,0.5028 2.5339,0.5026 1.6884,0.4663 1.6884,0.4662 1.4771,0.555 1.477,0.5549 1.166,0.5555 1.1658,0.5556 1.3501,0.7452 1.35,0.7452 1.5522,0.9777 1.5522,0.9775 1.5369,1.0889 1.5369,1.089 1.8897,1.4622 1.8896,1.4622 2.471,2.025 2.4711,2.025 6.2652,5.3275 6.2653,5.3275 1.2344,0.9645 1.2345,0.9647 1.0467,0.7389 1.0468,0.739 0.9851,0.5605 0.985,0.5606 0.9081,0.3117 0.9081,0.3118 1.052,0.056 1.052,0.056 1.1121,-0.2753 1.112,-0.2754 1.0859,-0.432 1.0858,-0.4318 2.2548,-1.2132 2.2547,-1.2131 1.585,-0.8168 1.585,-0.8167 1.1697,-0.4578 1.1698,-0.4577 1.0604,-0.2294 1.0602,-0.2294 1.2947,0.038 1.2947,0.038 0.9542,0.3926 0.9541,0.3926 1.1084,1.0705 1.1085,1.0705 0.4493,0.3589 0.4493,0.3588 0.3519,0.1046 0.352,0.1047 0.9029,-0.4458 0.9029,-0.4457 0.7412,-0.118 0.7411,-0.1179 0.75,0.1877 0.75,0.1878 0.631,0.3617 0.6309,0.3617 1.0229,0.9174 1.0229,0.9175 0.24,0.1793 0.2401,0.1794 1.0483,-0.4656 1.0483,-0.4656 1.0476,-0.2101 1.0476,-0.2101 1.5559,0.099 1.5558,0.099 0.8965,0.293 0.8965,0.2931 0.7677,0.4293 0.7676,0.4293 0.814,0.6952 0.814,0.6954 0.5868,0.8864 0.5868,0.8864 0.3775,0.9599 0.3775,0.9598 0.1807,0.9533 0.1806,0.9534 -0.1,1.882 -0.1,1.8821 -0.2883,1.0938 -0.2883,1.0939 -0.7099,1.6542 -0.71,1.6542 -0.6823,1.2217 -0.6824,1.2219 -1.0342,1.4879 -1.0343,1.488 -1.2948,1.5251 -1.2948,1.5253 -1.7149,1.7141 -1.7149,1.7141 z m -82.2104,0.5948 -0.055,0.048 -0.048,-0.055 -0.049,-0.055 0.055,-0.048 0.055,-0.049 0.049,0.055 0.049,0.055 z m -9.952,6.8212 -0.2583,0.2279 -1.2441,0.4292 -1.2442,0.4292 -1.5699,0.3716 -1.57,0.3716 -1.5218,0.1874 -1.5216,0.1876 -1.438,0.024 -1.438,0.024 -1.4688,-0.165 -1.4688,-0.1651 -1.5628,-0.3603 -1.5627,-0.3603 -1.6144,-0.6292 -1.6144,-0.6294 -0.9824,-0.5023 -0.9825,-0.5023 -1.444,-0.9079 -1.444,-0.9078 -1.4379,-1.1459 -1.4379,-1.1458 -2.2043,-2.3832 -2.2044,-2.3833 -1.0189,-1.423 -1.0189,-1.423 -0.6069,-1.0187 -0.6068,-1.0188 -0.1145,-0.4561 -0.1143,-0.4561 0.1626,-0.5254 0.1627,-0.5253 0.4399,-0.3881 0.4399,-0.3882 0.5416,-0.096 0.5414,-0.096 0.461,0.1791 0.4608,0.179 0.2378,0.2695 0.2377,0.2695 0.9116,1.5135 0.9115,1.5133 2.3715,2.6996 2.3715,2.6996 1.5026,1.1938 1.5025,1.1937 1.3055,0.8169 1.3056,0.8168 1.5729,0.7178 1.5728,0.7178 1.7476,0.4704 1.7475,0.4705 2.2875,0.1394 2.2875,0.1396 1.5795,-0.2051 1.5794,-0.2049 1.2174,-0.2829 1.2174,-0.2829 1.3211,-0.4399 1.321,-0.44 0.537,0.1628 0.5369,0.1627 0.4252,0.4819 0.4252,0.4819 0.092,0.521 0.092,0.521 -0.225,0.5251 -0.225,0.5252 z m 4.9235,-30.9428 -0.3412,0.3011 -0.8083,0.2387 -0.8082,0.2387 -1.1039,0.1434 -1.1039,0.1434 -1.3656,-0.082 -1.3658,-0.082 -1.2999,-0.359 -1.2999,-0.3591 -1.0875,-0.5298 -1.0875,-0.53 -0.9681,-0.6471 -0.968,-0.6471 -1.2162,-1.2556 -1.216,-1.2557 -0.1197,-0.5134 -0.1197,-0.5134 0.1646,-0.5064 0.1646,-0.5064 0.4658,-0.4109 0.4657,-0.4109 0.4558,-0.066 0.4559,-0.066 0.5243,0.1624 0.5245,0.1624 0.5886,0.6671 0.5891,0.6669 0.6913,0.5506 0.6914,0.5506 1.0296,0.6062 1.0298,0.6064 1.2274,0.339 1.2276,0.3391 1.1203,0.01 1.1203,0.01 1.0064,-0.2225 1.0062,-0.2224 0.5692,0.038 0.5692,0.038 0.4598,0.3721 0.4599,0.3723 0.1615,0.5901 0.1614,0.5901 -0.1541,0.5786 -0.1541,0.5786 z m -42.4326,5.1678 -0.053,0.046 -0.1145,-0.2412 -0.1146,-0.2412 -0.9673,-1.9826 -0.9673,-1.9827 -0.8329,-1.6122 -0.833,-1.6122 -0.8435,-1.5065 -0.8435,-1.5066 -1.0334,-1.6294 -1.0335,-1.6293 -0.7091,-1.0369 -0.7091,-1.0369 -2.7706,-3.2697 -2.7707,-3.2696 -1.7149,-1.6722 -1.7149,-1.6721 -1.0816,-0.9527 -1.0816,-0.9527 0.038,-0.034 0.038,-0.034 1.4616,0.4049 1.4617,0.4047 1.394,0.6453 1.3941,0.6451 1.4109,0.9067 1.4109,0.9066 1.001,0.7795 1.0009,0.7793 1.8972,2.0423 1.8972,2.0424 0.9907,1.473 0.9907,1.473 0.5497,1.0797 0.5497,1.0797 0.5832,1.3437 0.583,1.3436 0.5482,1.906 0.5482,1.906 0.2232,1.5208 0.2231,1.5209 0.023,1.7888 0.023,1.7888 z"
       id="path34-8-6" /><path
       style="opacity:0.5;fill:#ffffff;fill-opacity:1;stroke-width:0.544511"
       d="m -4659.4845,-7026.9935 -1.422,1.2192 -0.6784,0.5378 -0.6784,0.5374 -1.6071,1.1183 -1.607,1.1182 -1.9498,1.1437 -1.9496,1.1439 -1.5717,0.7445 -1.5718,0.7445 -1.2,0.491 -1.2001,0.4906 -1.6902,0.5884 -1.6903,0.5887 -2.1309,0.5244 -2.1309,0.5245 -2.4022,0.3378 -2.4022,0.3376 -1.6594,0.068 -1.6596,0.067 -1.4857,-0.015 -1.4855,-0.015 -2.2042,-0.2646 -2.2041,-0.2644 -1.3786,-0.2644 -1.3786,-0.2643 -2.2524,-0.6066 -2.2524,-0.6065 -2.075,-0.8588 -2.0754,-0.8587 -3.2666,-1.7467 -3.2667,-1.7468 -1.741,-0.8476 -1.7408,-0.8476 -2.0756,-0.8589 -2.0754,-0.8586 -1.405,-0.4394 -1.405,-0.4395 -1.4311,-0.3155 -1.4314,-0.3156 -2.246,-0.1503 -2.246,-0.1502 -1.4312,0.1199 -1.4309,0.1198 -1.7406,0.3139 -1.7408,0.3138 0.3415,-0.1572 0.3412,-0.1575 1.2743,-0.4067 1.2743,-0.4067 1.6295,-0.3308 1.6293,-0.3308 1.6184,-0.1258 1.6184,-0.126 1.8635,0.1123 1.8634,0.1122 1.2265,0.2041 1.2263,0.204 1.449,0.3546 1.4491,0.3546 1.7587,0.5616 1.7589,0.5617 1.6986,0.6146 1.6987,0.6148 3.4682,1.403 3.4682,1.403 2.2811,0.8251 2.2812,0.8252 1.8385,0.4914 1.8385,0.4912 1.1795,0.2081 1.1796,0.2081 1.7204,0.1854 1.7204,0.1852 1.8184,0.015 1.8186,0.015 1.6945,-0.1335 1.6946,-0.1336 1.7156,-0.2793 1.7156,-0.2796 1.9716,-0.5047 1.9715,-0.5044 1.6036,-0.561 1.6034,-0.5608 1.8052,-0.7847 1.8051,-0.7849 1.6432,-0.8912 1.6432,-0.8914 1.5779,-1.0108 1.5781,-1.0107 2.0778,-1.6019 2.078,-1.602 1.9194,-1.9245 1.9194,-1.9246 1.2129,-1.4561 1.2128,-1.4561 1.1824,-1.7085 1.1824,-1.7084 0.5456,-1.0509 0.5455,-1.0508 0.3799,-0.9489 0.38,-0.9489 0.2417,-0.9394 0.2418,-0.9395 0.071,-0.9358 0.071,-0.9356 -0.1557,-1.0366 -0.1558,-1.0367 -0.3771,-0.6856 -0.3771,-0.6857 -0.6106,-0.5915 -0.6106,-0.5913 -0.7324,-0.3145 -0.7323,-0.3143 -1.2296,-0.076 -1.2296,-0.078 -0.8381,0.2477 -0.8382,0.2478 -0.6777,0.3614 -0.6779,0.3615 -0.7505,0.1198 -0.7505,0.1199 -0.9382,-0.3905 -0.9379,-0.3905 -1.3042,-1.1595 -1.3041,-1.1595 -0.2129,-0.1108 -0.2127,-0.1108 -0.7872,0.3508 -0.7872,0.3509 -0.5934,0.1539 -0.5933,0.1539 -0.7618,-0.016 -0.7619,-0.015 -0.754,-0.3264 -0.754,-0.3265 -1.0719,-0.8653 -1.0719,-0.8654 -0.5312,-0.6021 -0.5314,-0.602 -0.5183,-0.1607 -0.5186,-0.1605 -0.907,0.1243 -0.9072,0.1245 -1.2048,0.4715 -1.2048,0.4714 -3.6849,1.9326 -3.6847,1.9327 -1.2762,0.5135 -1.276,0.5135 -1.1013,0.3173 -1.1013,0.3173 -1.2544,0.061 -1.2544,0.061 -0.9946,-0.1883 -0.9947,-0.1881 -1.2834,-0.4815 -1.2835,-0.4814 -1.1684,-0.6682 -1.1685,-0.6684 -0.9653,-0.6855 -0.9652,-0.6855 -1.6573,-1.3235 -1.6576,-1.3234 -6.933,-5.891 -6.933,-5.8908 -2.2381,-1.772 -2.2381,-1.7718 -1.421,-1.0516 -1.4213,-1.0517 -1.2193,-0.8454 -1.2195,-0.8454 -1.6763,-1.0186 -1.6765,-1.0185 -1.533,-0.7608 -1.5333,-0.7606 -1.1799,-0.4554 -1.1802,-0.4552 -2.1975,-0.5994 -2.1977,-0.5991 -3.3257,-0.6201 -3.3254,-0.6204 -1.7692,-0.3603 -1.7692,-0.3604 -1.7587,-0.4656 -1.7587,-0.4655 -1.1601,-0.3885 -1.16,-0.3887 -1.1085,-0.4919 -1.1083,-0.492 -1.2119,-0.6599 -1.2119,-0.6597 -1.2771,-0.8906 -1.2772,-0.8904 -1.2878,-1.0733 -1.2875,-1.0734 -2.1406,-2.4344 -2.1405,-2.4342 -0.818,-1.1996 -0.8182,-1.1994 -0.8294,-1.3817 -0.8293,-1.3817 -0.8213,-1.5809 -0.8213,-1.5807 -0.8787,-2.0716 -0.8786,-2.0716 -0.5726,-1.6434 -0.5727,-1.6432 -0.7163,-2.6823 -0.7165,-2.6824 0.062,0.015 0.062,0.015 0.5195,1.3565 0.5196,1.3566 0.8638,1.9279 0.8635,1.9277 0.9131,1.692 0.9133,1.692 0.6797,1.1295 0.6798,1.1292 0.8905,1.3277 0.8908,1.3275 2.0903,2.4997 2.0902,2.4997 1.3336,1.2528 1.3337,1.2525 0.8774,0.6793 0.8777,0.6795 1.0031,0.6865 1.0032,0.6866 1.0859,0.6749 1.0862,0.6749 1.4021,0.7409 1.4021,0.7409 1.4515,0.5839 1.4514,0.5839 2.1003,0.5487 2.1002,0.5483 2.8623,0.5488 2.8624,0.5485 2.4889,0.4939 2.4891,0.4936 1.6584,0.4581 1.6586,0.4578 1.4508,0.5453 1.4508,0.545 1.1455,0.5457 1.1452,0.5458 1.3261,0.732 1.3261,0.7319 1.5247,0.9605 1.5247,0.9602 1.5097,1.0696 1.5096,1.0697 1.8562,1.4364 1.8561,1.4362 2.4274,1.9892 2.4273,1.989 6.1544,5.2333 6.1543,5.2331 1.2125,0.9475 1.2127,0.9475 1.0282,0.7259 1.0281,0.7258 0.9678,0.5507 0.9675,0.5506 0.8919,0.3061 0.8922,0.3064 1.0333,0.054 1.0334,0.055 1.0924,-0.2705 1.0923,-0.2705 1.0666,-0.4245 1.0666,-0.4241 2.2149,-1.1917 2.2148,-1.1916 1.5568,-0.8021 1.557,-0.8024 1.1489,-0.4496 1.1492,-0.4496 1.0415,-0.2255 1.0416,-0.2252 1.2717,0.037 1.2717,0.037 0.9374,0.3856 0.9372,0.3858 1.0888,1.0514 1.0888,1.0515 0.4414,0.3527 0.4413,0.3525 0.3458,0.1032 0.3457,0.103 0.887,-0.4378 0.8867,-0.4379 0.7282,-0.1153 0.728,-0.1152 0.7367,0.1842 0.7367,0.1845 0.6198,0.3553 0.6198,0.3553 1.0048,0.9012 1.0047,0.9012 0.2357,0.1761 0.2359,0.1763 1.0297,-0.4574 1.0297,-0.4574 1.0292,-0.2063 1.0288,-0.2064 1.5284,0.098 1.5284,0.097 0.8806,0.2879 0.8806,0.2879 0.754,0.4217 0.7542,0.4217 0.7995,0.683 0.7997,0.683 0.5763,0.8708 0.5764,0.8706 0.3709,0.9429 0.3707,0.9428 0.1775,0.9364 0.1775,0.9366 -0.099,1.8486 -0.099,1.8488 -0.2832,1.0744 -0.2832,1.0746 -0.6974,1.6248 -0.6975,1.625 -0.6702,1.2001 -0.6702,1.2002 -1.0159,1.4616 -1.016,1.4615 -1.2719,1.4983 -1.2718,1.4981 -1.6846,1.6838 -1.6846,1.6837 z m -80.7546,0.5844 -0.054,0.047 -0.047,-0.054 -0.048,-0.054 0.055,-0.047 0.054,-0.048 0.048,0.054 0.048,0.055 z m -9.7757,6.7003 -0.2537,0.2239 -1.222,0.4217 -1.2223,0.4215 -1.5421,0.365 -1.5421,0.3649 -1.4948,0.1843 -1.4948,0.1843 -1.4125,0.023 -1.4125,0.025 -1.4427,-0.1622 -1.4429,-0.1622 -1.5351,-0.3539 -1.535,-0.3539 -1.5859,-0.618 -1.5858,-0.6183 -0.965,-0.4935 -0.965,-0.4933 -1.4186,-0.8918 -1.4183,-0.8918 -1.4125,-1.1256 -1.4124,-1.1254 -2.1652,-2.3411 -2.1655,-2.3411 -1.0009,-1.3977 -1.0007,-1.3979 -0.5962,-1.0006 -0.5961,-1.0007 -0.1122,-0.4482 -0.1123,-0.4479 0.1599,-0.5161 0.1597,-0.5161 0.4321,-0.3811 0.4321,-0.3814 0.5321,-0.095 0.5317,-0.095 0.4529,0.176 0.4526,0.1759 0.2336,0.2646 0.2334,0.2648 0.8956,1.4867 0.8954,1.4866 2.3294,2.6518 2.3295,2.6516 1.476,1.1728 1.4758,1.1724 1.2825,0.8025 1.2825,0.8024 1.545,0.705 1.545,0.7051 1.7167,0.4621 1.7165,0.4622 2.247,0.1365 2.2471,0.1366 1.5513,-0.2016 1.5516,-0.2012 1.1958,-0.2779 1.1959,-0.2779 1.2976,-0.4322 1.2976,-0.4321 0.5276,0.1598 0.5273,0.1599 0.4178,0.4733 0.4176,0.4734 0.091,0.5118 0.091,0.5117 -0.221,0.5158 -0.2211,0.5159 z m 4.8364,-30.3948 -0.3353,0.2959 -0.794,0.2343 -0.7938,0.2346 -1.0843,0.141 -1.0843,0.1411 -1.3415,-0.081 -1.3416,-0.081 -1.277,-0.3527 -1.2768,-0.3527 -1.0683,-0.5205 -1.0682,-0.5204 -0.951,-0.6358 -0.9508,-0.6356 -1.1947,-1.2333 -1.1944,-1.2335 -0.1169,-0.5043 -0.1182,-0.5042 0.1617,-0.4977 0.1615,-0.4973 0.4577,-0.4036 0.4574,-0.4037 0.4478,-0.065 0.4477,-0.065 0.5151,0.1596 0.5152,0.1594 0.5782,0.6554 0.5786,0.655 0.6792,0.5409 0.6791,0.5408 1.0113,0.5955 1.0116,0.5957 1.2057,0.3329 1.2058,0.3332 1.1003,0.015 1.1007,0.015 0.9886,-0.2186 0.9883,-0.2185 0.5591,0.038 0.5592,0.038 0.4515,0.3654 0.4518,0.3657 0.1587,0.5797 0.1585,0.5797 -0.1517,0.5683 -0.1516,0.5685 z m -41.6813,5.0763 -0.051,0.045 -0.1123,-0.237 -0.1122,-0.237 -0.9501,-1.9474 -0.9502,-1.9476 -0.8181,-1.5836 -0.8182,-1.5837 -0.8286,-1.4798 -0.8286,-1.4799 -1.0152,-1.6005 -1.0151,-1.6005 -0.6966,-1.0185 -0.6964,-1.0186 -2.7216,-3.2118 -2.7216,-3.2118 -1.6846,-1.6425 -1.6844,-1.6424 -1.0626,-0.9358 -1.0624,-0.9358 0.037,-0.034 0.038,-0.033 1.4358,0.3977 1.4359,0.3976 1.3691,0.6339 1.3696,0.6336 1.3859,0.8907 1.3859,0.8905 0.9833,0.7658 0.9832,0.7654 1.8635,2.0062 1.8637,2.0061 0.9731,1.447 0.9731,1.4469 0.54,1.0606 0.5399,1.0605 0.573,1.3199 0.5727,1.32 0.5385,1.8722 0.5383,1.8722 0.2194,1.4938 0.2191,1.4941 0.023,1.7571 0.023,1.7571 z"
       id="path34-8-6-7" /></g></svg>
